#!OML:ASF I:\Actors\actors\Patient Classification 2\Patient 1\Session 1\actor1.ASF
:FULLY-SPECIFIED
:DEGREES
783
root -0.604959 18.6474 5.39629 -2.55781 -1.69209 -3.05349
lowerback 9.93478 0.824243 -0.183178
upperback -3.0226 1.19548 1.37797
thorax -8.83802 0.633553 1.36041
lowerneck -13.8749 -1.20617 -0.663506
upperneck 30.435 -2.01689 1.36063
head 12.3755 -0.800144 0.337771
rclavicle -4.28008e-015 5.51627e-015
rhumerus -41.2691 -26.7855 -9.29088
rradius 74.7887
rwrist -12.7986
rhand -0.354666 -48.7998
rfingers 7.12502
rthumb 25.2506 -77.1489
lclavicle -4.28008e-015 5.51627e-015
lhumerus -41.0651 30.4583 16.7019
lradius 78.2058
lwrist 37.6959
lhand -9.96215 -20.6888
lfingers 7.12502
lthumb 16.0201 8.66882
rfemur 10.1507 5.16436 16.7837
rtibia -3.65764e-014
rfoot -17.7597 -11.3851
rtoes -7.18174
lfemur -2.56925 -5.35841 -11.7935
ltibia 23.3325
lfoot -21.9236 10.1643
ltoes -55.3649
784
root -0.611206 18.6468 5.39609 -2.58678 -1.49193 -3.09594
lowerback 9.85949 0.768829 -0.206917
upperback -2.92429 1.11784 1.39628
thorax -8.68608 0.596968 1.40754
lowerneck -13.8267 -1.24322 -0.601471
upperneck 30.1918 -2.06269 1.29591
head 12.2659 -0.823657 0.295876
rclavicle 2.10898e-015 -6.26172e-015
rhumerus -41.363 -26.0874 -10.0189
rradius 74.3742
rwrist -11.4486
rhand -0.641089 -48.2479
rfingers 7.12502
rthumb 24.9762 -76.6355
lclavicle 2.10898e-015 -6.26172e-015
lhumerus -40.9806 29.2122 17.7906
lradius 78.1651
lwrist 37.4254
lhand -10.3286 -20.7068
lfingers 7.12502
lthumb 15.6672 8.67883
rfemur 10.2401 4.96016 16.854
rtibia -4.77083e-015
rfoot -17.7997 -11.3474
rtoes -6.99674
lfemur -2.58463 -5.34842 -11.6885
ltibia 23.3387
lfoot -21.8268 9.92455
ltoes -55.3381
785
root -0.610993 18.6492 5.3906 -2.50911 -1.57526 -3.15722
lowerback 9.77596 0.80018 -0.143388
upperback -2.87842 1.16819 1.41039
thorax -8.58809 0.618043 1.37883
lowerneck -13.7148 -1.2702 -0.464685
upperneck 29.8509 -2.08745 1.15159
head 12.1023 -0.840679 0.214889
rclavicle 1.06536e-014 -1.963e-014
rhumerus -41.5077 -25.2795 -10.8602
rradius 73.8435
rwrist -10.0543
rhand -0.974253 -47.5937
rfingers 7.12502
rthumb 24.6569 -76.0252
lclavicle 1.06536e-014 -1.963e-014
lhumerus -41.0061 27.9807 18.9359
lradius 78.1028
lwrist 36.868
lhand -10.1632 -20.6494
lfingers 7.12502
lthumb 15.8265 8.72366
rfemur 10.1207 5.03514 16.9202
rtibia -3.18055e-015
rfoot -17.7755 -11.3809
rtoes -7.00505
lfemur -2.66256 -5.36158 -11.6208
ltibia 23.3385
lfoot -21.8371 9.99568
ltoes -55.2835
786
root -0.610917 18.652 5.38501 -2.40149 -1.67059 -3.19549
lowerback 9.67009 0.814683 -0.122258
upperback -2.8394 1.19078 1.43123
thorax -8.48489 0.628188 1.38626
lowerneck -13.647 -1.24948 -0.412834
upperneck 29.5328 -2.05082 1.10488
head 11.9599 -0.826933 0.194228
rclavicle -1.94188e-014 -8.19987e-015
rhumerus -41.6574 -24.4342 -11.8824
rradius 73.2902
rwrist -8.94635
rhand -1.57606 -47.2164
rfingers 7.12502
rthumb 24.08 -75.7255
lclavicle -1.94188e-014 -8.19987e-015
lhumerus -41.1956 26.8614 20.068
lradius 77.9953
lwrist 35.8482
lhand -9.54468 -20.7313
lfingers 7.12502
lthumb 16.4221 8.59353
rfemur 9.96524 5.12207 16.9576
rtibia 2.70347e-014
rfoot -17.731 -11.404
rtoes -6.92477
lfemur -2.76558 -5.37221 -11.5758
ltibia 23.3342
lfoot -21.8834 10.06
ltoes -55.1949
787
root -0.611512 18.6545 5.37854 -2.29101 -1.72914 -3.16583
lowerback 9.56989 0.814714 -0.187819
upperback -2.79063 1.18175 1.44058
thorax -8.37528 0.627078 1.43568
lowerneck -13.6797 -1.20421 -0.411656
upperneck 29.2619 -1.97819 1.09793
head 11.8586 -0.796643 0.201607
rclavicle -1.63003e-014 -1.07841e-014
rhumerus -41.8219 -23.6002 -13.0761
rradius 72.6502
rwrist -8.1237
rhand -2.43761 -47.215
rfingers 7.12502
rthumb 23.2536 -75.831
lclavicle -1.63003e-014 -1.07841e-014
lhumerus -41.4757 25.7845 21.3356
lradius 77.8153
lwrist 34.5052
lhand -9.15465 -20.9993
lfingers 7.12502
lthumb 16.7976 8.29406
rfemur 9.80804 5.17571 16.919
rtibia 1.90833e-014
rfoot -17.7079 -11.4282
rtoes -6.88937
lfemur -2.88828 -5.34181 -11.5938
ltibia 23.3264
lfoot -21.9051 10.0687
ltoes -55.1407
788
root -0.6127 18.6572 5.37224 -2.18273 -1.77703 -3.10237
lowerback 9.46571 0.832075 -0.30174
upperback -2.7348 1.18991 1.45052
thorax -8.25744 0.636659 1.51016
lowerneck -13.778 -1.17637 -0.438675
upperneck 29.0295 -1.91943 1.0767
head 11.7867 -0.776712 0.206106
rclavicle 1.48188e-014 1.51573e-014
rhumerus -42.032 -22.7915 -14.3506
rradius 71.8274
rwrist -7.30855
rhand -3.30874 -47.279
rfingers 7.12502
rthumb 22.4176 -75.9981
lclavicle 1.48188e-014 1.51573e-014
lhumerus -41.7583 24.6176 22.8512
lradius 77.5473
lwrist 33.2173
lhand -9.35531 -21.3243
lfingers 7.12502
lthumb 16.6044 7.9854
rfemur 9.65645 5.22009 16.8451
rtibia -3.18055e-014
rfoot -17.6855 -11.4657
rtoes -7.08172
lfemur -3.01687 -5.29172 -11.6418
ltibia 23.3235
lfoot -21.9044 10.0622
ltoes -55.0771
789
root -0.613316 18.6594 5.36681 -2.08742 -1.82233 -3.0681
lowerback 9.34998 0.858305 -0.358588
upperback -2.65717 1.21645 1.45261
thorax -8.10873 0.651695 1.54131
lowerneck -13.958 -1.15737 -0.487445
upperneck 28.8691 -1.89315 1.13544
head 11.7617 -0.762567 0.238981
rclavicle 1.85025e-014 1.49089e-016
rhumerus -42.3029 -22.013 -15.7308
rradius 70.8334
rwrist -6.45306
rhand -4.32531 -46.7006
rfingers 7.12502
rthumb 21.4415 -75.5341
lclavicle 1.85025e-014 1.49089e-016
lhumerus -42.0396 23.2302 24.5466
lradius 77.2315
lwrist 32.1455
lhand -9.87898 -21.5852
lfingers 7.12502
lthumb 16.1002 7.76597
rfemur 9.5216 5.26126 16.802
rtibia -1.27222e-014
rfoot -17.6439 -11.515
rtoes -7.34102
lfemur -3.13875 -5.22315 -11.6642
ltibia 23.3274
lfoot -21.8404 10.0969
ltoes -55.0801
790
root -0.614271 18.6605 5.36026 -2.00531 -1.86412 -3.11189
lowerback 9.24908 0.882156 -0.313569
upperback -2.55061 1.25204 1.45266
thorax -7.93565 0.665757 1.51145
lowerneck -14.1654 -1.13866 -0.424587
upperneck 28.6817 -1.88327 1.14811
head 11.7302 -0.749471 0.233027
rclavicle 2.45375e-015 2.71838e-014
rhumerus -42.6333 -21.2587 -17.2631
rradius 69.7062
rwrist -5.61862
rhand -5.43302 -46.3443
rfingers 7.12502
rthumb 20.3773 -75.2952
lclavicle 2.45375e-015 2.71838e-014
lhumerus -42.3332 21.8197 26.3606
lradius 76.7868
lwrist 30.9722
lhand -10.0687 -21.7801
lfingers 7.12502
lthumb 15.9175 7.58581
rfemur 9.40047 5.29597 16.8459
rtibia 2.54444e-014
rfoot -17.6636 -11.5024
rtoes -6.94079
lfemur -3.2574 -5.13841 -11.6022
ltibia 23.3391
lfoot -21.7484 10.1582
ltoes -55.2064
791
root -0.615797 18.6616 5.35255 -1.94114 -1.8815 -3.15245
lowerback 9.19681 0.897032 -0.291932
upperback -2.45057 1.27395 1.46584
thorax -7.79846 0.67487 1.51047
lowerneck -14.2354 -1.12387 -0.256344
upperneck 28.3255 -1.84888 0.974309
head 11.6016 -0.739581 0.144328
rclavicle 5.35166e-015 -2.48481e-015
rhumerus -43.0152 -20.5184 -18.8301
rradius 68.4645
rwrist -4.35131
rhand -5.34464 -47.2625
rfingers 7.12502
rthumb 20.4622 -76.2043
lclavicle 5.35166e-015 -2.48481e-015
lhumerus -42.6736 20.5098 28.3082
lradius 76.1452
lwrist 29.7205
lhand -9.77719 -22.0444
lfingers 7.12502
lthumb 16.1982 7.29884
rfemur 9.30404 5.3075 16.888
rtibia 0
rfoot -17.7013 -11.4632
rtoes -6.38838
lfemur -3.36557 -5.07151 -11.5384
ltibia 23.3587
lfoot -21.7001 10.1523
ltoes -55.2972
792
root -0.615607 18.6624 5.34618 -1.91441 -1.87739 -3.13622
lowerback 9.17696 0.881524 -0.31212
upperback -2.34916 1.25056 1.48333
thorax -7.67839 0.663992 1.54447
lowerneck -14.1996 -1.08449 -0.0948271
upperneck 27.8315 -1.74936 0.710702
head 11.3981 -0.713852 0.0344076
rclavicle -1.72073e-015 -7.45443e-016
rhumerus -43.363 -19.7786 -20.4568
rradius 67.2103
rwrist -2.45453
rhand -5.61694 -46.5391
rfingers 7.12502
rthumb 20.2006 -75.5087
lclavicle -1.72073e-015 -7.45443e-016
lhumerus -43.1291 19.0617 30.3838
lradius 75.4467
lwrist 28.7794
lhand -9.48856 -22.1969
lfingers 7.12502
lthumb 16.4761 7.12346
rfemur 9.25334 5.30277 16.8658
rtibia -9.54166e-015
rfoot -17.667 -11.4869
rtoes -6.43592
lfemur -3.4357 -4.9824 -11.543
ltibia 23.3735
lfoot -21.6515 10.1011
ltoes -55.3881
